<svg width="685" height="685" viewBox="0 0 181.2 181.2" xml:space="preserve" xmlns="http://www.w3.org/2000/svg">
  <ellipse style="fill:#fff;fill-opacity:1;fill-rule:nonzero;stroke:none;stroke-width:1.72571;stroke-linecap:round;stroke-linejoin:round;stroke-dasharray:none;stroke-opacity:1" cx="-49.9" cy="334.9" rx="89.8" ry="90" transform="translate(140.7 -244.4)"/>
  <path style="fill:none;stroke:#585858;stroke-width:8.51318;stroke-linecap:round;stroke-linejoin:round;stroke-miterlimit:4.6;stroke-dasharray:none;stroke-opacity:1;paint-order:stroke fill markers" d="M-47.4 364.5s11 21 32.2 32l5.2-5.5c-10.4-8.8-13.3-24-13.3-24s24-1.2 30.5-22.5c25.5-20.6 14.6-44.7-2.2-60.7s-31-20-58.8-16.5c-29-3.6-53.2 18.1-62.8 37.2-16.4 39.7 11.9 45 28.6 49.6 9.3 17.6 40.6 10.4 40.6 10.4z" transform="translate(140.7 -244.4)"/>
  <path style="fill:none;fill-opacity:0;stroke:#328ce7;stroke-width:8.51318;stroke-linecap:round;stroke-miterlimit:8.9;stroke-dasharray:none;stroke-opacity:1;paint-order:stroke fill markers" d="M-83.1 309v14.7M-72.2 297.7V335M-61.1 304.9v23M-50.2 288.3v56M-39.2 293.2v46.3M-28.2 309.4v14M-17.2 301.5v29.7" transform="translate(140.7 -244.4)"/>
  <path style="fill:#328ce7;fill-opacity:1;stroke-width:3.07137;stroke-linecap:round;stroke-linejoin:round" d="M-11.4 316.5a6 6 0 0 0 6.3 6.1c3.8 0 3.7-3 3.7-6.4 0-3.5 0-6.2-3.7-6.2-3.8 0-6.3 3-6.3 6.5z" transform="translate(140.7 -244.4)"/>
  <path style="fill:#328ce7;fill-opacity:1;stroke-width:3.07139;stroke-linecap:round;stroke-linejoin:round" d="M-89 316.5a6 6 0 0 1-6.2 6.1c-3.8 0-3.7-3-3.7-6.4 0-3.5-.1-6.2 3.7-6.2 3.8 0 6.2 3 6.2 6.5z" transform="translate(140.7 -244.4)"/>
  <g>
    <path style="fill:none;fill-opacity:1;stroke:#585858;stroke-width:8.02671;stroke-linecap:round;stroke-linejoin:round;stroke-miterlimit:4.6;stroke-dasharray:none;stroke-opacity:1;paint-order:stroke fill markers" d="M93.7 119.8c17.3-4.6 24.3-15.6 24.3-15.6M148.8 42.8c-13.8-15.6-31-3.2-31-3.2"/>
    <path style="fill:none;fill-opacity:1;stroke:#585858;stroke-width:6.66246;stroke-linecap:round;stroke-linejoin:round;stroke-miterlimit:4.6;stroke-dasharray:none;stroke-opacity:1;paint-order:stroke fill markers" d="M21 92.6C17 78 33.4 72.3 33.4 72.3"/>
    <path style="fill:none;fill-opacity:1;stroke:#585858;stroke-width:8.02671;stroke-linecap:round;stroke-linejoin:round;stroke-miterlimit:4.6;stroke-dasharray:none;stroke-opacity:1;paint-order:stroke fill markers" d="M53.4 110.7c-5.6-9.7-1.2-16.3-1.2-16.3"/>
    <path style="fill:none;fill-opacity:1;stroke:#585858;stroke-width:6.66246;stroke-linecap:round;stroke-linejoin:round;stroke-miterlimit:4.6;stroke-dasharray:none;stroke-opacity:1;paint-order:stroke fill markers" d="M155.3 52.4c6.1 16.8-6.2 20-6.2 20"/>
    <path style="fill:none;fill-opacity:1;stroke:#585858;stroke-width:8.02671;stroke-linecap:round;stroke-linejoin:round;stroke-miterlimit:4.6;stroke-dasharray:none;stroke-opacity:1;paint-order:stroke fill markers" d="M93.6 22.2C75.4 26.6 69 35.4 69 35.4"/>
    <path style="fill:#585858;fill-opacity:1;stroke-width:3.07137;stroke-linecap:round;stroke-linejoin:round" d="M151.7 72a6 6 0 0 1-6.2 6.2c-3.8 0-3.7-2.9-3.7-6.4 0-3.5-.1-6.1 3.7-6.1 3.8 0 6.2 2.9 6.2 6.4z"/>
    <path style="fill:#585858;fill-opacity:1;stroke-width:3.07139;stroke-linecap:round;stroke-linejoin:round" d="M30.1 72a6 6 0 0 0 6.3 6.2c3.8 0 3.7-2.9 3.7-6.4 0-3.5 0-6.1-3.7-6.1-3.9 0-6.3 2.9-6.3 6.4z"/>
  </g>
</svg>
